<?xml version="1.0" encoding="UTF-8"?><svg id="Complications" xmlns="http://www.w3.org/2000/svg" viewBox="0 0 32 32"><defs><style>.cls-1{stroke:#fff;}.cls-1,.cls-2{stroke-linecap:round;}.cls-1,.cls-2,.cls-3{stroke-miterlimit:10;}.cls-1,.cls-3{fill:#fff;stroke-width:.5px;}.cls-4{fill:#d99898;}.cls-2{fill:none;stroke:#ed7580;}.cls-3{stroke:#e59791;}</style></defs><g id="ic_bowel"><path class="cls-3" d="M5.21,6.33s.03-.05,.05-.07"/><path class="cls-1" d="M5.26,6.26c.83-1.33,2.6-2.25,4.63-2.25,1.73,0,3.25,.67,4.19,1.69,.83-.78,1.94-1.28,3.17-1.28,1.83,0,3.42,1.08,4.17,2.64,.3,.62,.47,1.32,.47,2.06,0,1.12-.4,2.13-1.04,2.93,.87,.43,1.53,1.07,1.86,1.82,0,0,.02,.03,.04,.09,.02,.04,.04,.09,.06,.14,.1,.28,.15,.57,.15,.88,0,.21-.02,.42-.08,.62h0c-.11,.48-.35,.91-.68,1.29-.14,.16-.32,.33-.53,.49-.16,.12-.34,.25-.54,.37-.1,.06-.21,.12-.32,.18l.02,.02c1.03,.62,1.7,1.61,1.7,2.74,0,0,.01,0,0,.01,0,1.07-.6,2.03-1.55,2.67,.51,.6,.8,1.32,.73,2.08-.09,1.11-.88,2.03-2.01,2.54l-2.4-.29-2.92-.35c-.86-.68-1.35-1.62-1.27-2.62,.08-.92,.65-1.72,1.49-2.25-.16-.22-.3-.45-.4-.7-.02-.05-.04-.1-.05-.16-.01-.02-.02-.04-.02-.06-.09-.27-.14-.56-.14-.86,0-1.11,.66-2.09,1.66-2.73,.01-.01,.02-.01,.02-.01-1.13-.54-1.94-1.42-2.16-2.44-.01-.03-.01-.05-.01-.08-.01-.07-.02-.14-.03-.22-.01-.15-.01-.24-.01-.24,0-.8,.38-1.54,.99-2.13-.26-.2-.49-.43-.71-.68-.42,.42-1,.68-1.65,.68s-1.29-.31-1.72-.77c-.42,1.19-1.51,2.05-2.83,2.05-.82,0-1.56-.33-2.11-.86-.08-.08-.15-.16-.22-.24l.05-6.77Z"/><path class="cls-2" d="M13.63,14.58s-.12,2.47,2.56,3.33c0,0-3.18,1.23-1.69,4.26"/><path class="cls-2" d="M22.71,13.87s1.52,2.13-1.91,4.06c0,0,3.19,2.71,.97,4.95"/><path class="cls-4" d="M21.4,16.4c.69-.56,.27-2.93-1.31-3.28-1.57-.35-1.01-1.63-.35-2.24,.67-.61,2.08-4.19-1.43-4.97-3.52-.78-4.86,1.6-4.86,1.6,0,0-1.83-3.27-5.03-1.93,0,0-1.83,.86-2.37,1.98l.03,4.54c1.62,2.13,3.74-.97,3.74-.97,0,0,.53-.61,1.09,.03,.56,.64,1.61,1.39,3.1-.13,.47-.48,1-.73,1.5-.84,1.09-.24,2,.23,1.73,.66-.07,.11-.23,.28-.44,.49-.92,.93-2.76,2.66-2.04,3.78,.88,1.36,2.99,1.09,3.82,1.68,.83,.59,1.47,1.39-1.17,2.11-1.65,.45-2.65,1.41-1.76,2.85,0,0,.22,1.81-.73,2.74-.46,.45,.46,2.1,.46,2.1l3.73,.41c1.7-1.45,1.46-3.45,.63-3.79-.36-.15-.35-.48-.24-.8,.49-.46,.86-1.04,1.08-1.57,.51-1.23,.27-2.25-.67-2.43-.93-.18,.8-1.47,1.49-2.03Z"/></g></svg>