<?xml version="1.0" encoding="UTF-8"?><svg id="Complications" xmlns="http://www.w3.org/2000/svg" viewBox="0 0 32 32"><defs><style>.cls-1{fill:#fff;}.cls-2{fill:#ebbeab;}.cls-3{fill:#fed4c2;}</style></defs><g id="ic_gb"><path class="cls-1" d="M9.27,8.41s.41-.64,.95-1.15,.88-.87,1.78-.88,8.25,.05,8.25,.05c0,0-.9,2.98-2.6,3.61,0,0,.14,.1,.12,.31,0,0,2.22-.04,3.89,.81s2.2,1.7,2.2,1.7c0,0,2.92,1.48,3.17,1.83s.56,.77,.29,1.27l-.27,.5s.27,.79,.67,1.52,1.52,2.45,1.52,3.12-.35,.94-.71,.98-.46,0-.46,0c0,0,.87,1.23,.85,1.95s-.69,1.06-1.04,1.12-.44-.08-.44-.08c0,0-.22,1.35-1.78,1.05s-2.18-1.96-2.18-1.96c0,0-.25,1.06-1.77,.85s-2.35-1.93-2.87-3.31-3.58-3.03-3.58-3.03c0,0-.69,1.12-2.18,.79-.24-.05-.58-.17-.88-.52-.34-.1-.91,.01-1.23-.12-.61-.09-.49-.37-.95-.5-.8-.24-1.61-.23-2.55-.44-.77-.48-.68-.79-.96-1.78l-1.69,.06s-.11-5.45,1.91-7.43c1.1-.75,2.54-.31,2.54-.31Z"/><path class="cls-3" d="M26.48,16.18s.56-.42,.31-.87-2.95-1.86-2.95-1.86l2.63,2.73Z"/><path class="cls-3" d="M26.37,16.29c.27,.31,.67,1.42,1.16,2.3,.34,.61,.68,1.16,.92,1.62s.39,.82,.33,1.03c-.19,.72-1.4,.37-1.4,.37,.3,.64,1.22,2.1,.95,2.51-.56,.87-1.56,.12-1.56,.12,0,0,.62,1.5-1.18,1.06s-2.01-3.35-3.07-4.18-1.87-2.12-1.87-2.12c-.08,.09-.26,.15-.26,.15,.63,.69,1.98,3.7,1.98,3.7,0,0,.52,1.16-.07,1.44s-1.03-.15-1.45-.47-1.08-1.91-1.92-3.17-3.2-2.58-3.73-3c-.41-.32-.65-.35-.65-.35,0,0,.54-2.71-.56-3.44-.3-.14-.55-.18-.55-.18,0,0,.18-.97-.1-1.38s-.63-.68-.92-.81-.62-.2-.89-.09-.54,.52-.54,.52c0,0-.05-.22-.32-.51s-.45-.34-.72-.35-.73,.1-1.15,.36-.56,1.82-.6,2.1c-.33-.04-.63-.01-.96,.37-.43,.46-.62,1.52-.62,1.52l-1.09,.03s.5-6.45,2.24-6.52,4.58,1.06,4.58,1.06c0,0,2.65,.78,6.24,1s5.14,2.56,5.14,2.56c0,0,2.37,2.42,2.63,2.73Z"/><path class="cls-3" d="M15.06,17.84s-.81,.94-1.06,.98-1.37,.32-1.54-.6c0,0-1.68,.27-2.16-.69,0,0-1.39,.12-1.64-.46,0,0-.91,.39-1.35-.42s-.33-1.21-.33-1.21c0,0,.25-2,1.48-1.48,0,0,.17-2.14,.58-2.33s1.43-.77,1.85,.85c0,0,.52-1.08,1.23-.81s1,.71,1.08,1.25-.12,1.04-.12,1.04c0,0,.79-.17,1.12,.91s.04,2.62,.04,2.62c0,0,.27-.04,.83,.33Z"/><path class="cls-3" d="M10,8.68s.87-1.39,1.43-1.54,7.79,.04,7.79,.04c0,0-.73,1.84-2.27,2.3,0,0,.37,.3,.37,.89,0,0-1.13-.13-2.29-.32s-2.52-.55-2.52-.55c0,0-.98-.42-2.51-.81Z"/><path class="cls-2" d="M13,8.23s2.99,.21,3.95,1.25c0,0,1.4-.34,2.26-2.3l-.96-.02c-.38-.02-.73,.41-1.42,.43-1.13,.04-2.53,.19-3.83,.64Z"/><path class="cls-2" d="M8.45,13.97s-.16,1.04-.14,1.33,.35,1.77,.35,1.77c0,0-.08,.07-.2-.22-.11-.23-.4-1.35-.38-1.58s.25-1.3,.37-1.29Z"/><path class="cls-2" d="M10.89,12.49s-.48,.91-.67,1.18-.18,.5-.18,.5c0,0-.17,1.15,.26,3.35,0,0-.16,.06-.21-.26s-.43-2.54-.22-3.13,.45-.58,1.02-1.63Z"/><path class="cls-2" d="M13.07,13.97s-.46,.2-.51,.64-.28,1.26-.26,1.82c.03,.79,.17,1.78,.17,1.78,0,0-.1,.01-.12-.01s-.11-.87-.15-1.42c-.06-.82,.11-1.33,.17-1.57s.08-.53,.17-.76c.12-.29,.37-.44,.52-.49Z"/><path class="cls-2" d="M22.45,17.17s-.06,.18-.03,.28-.17,.13,.59,.67,1.65,1.23,1.76,1.73,.05,.38,.3,1.17,.52,1.29,.66,1.39,.32,.51,.37,.67,.67,1.07,.74,1.39,.02-.29-.34-.8-.41-.94-.67-1.28-.49-.84-.5-.92-.42-1.76-.61-1.96c-.31-.45-1.64-1.42-1.64-1.42,0,0-.47-.53-.63-.92Z"/><path class="cls-2" d="M20.64,19.02s-.07,.1-.26,.15c0,0-.47-.75-.64-.89,0,0-.15-.28-.1-.36,.07-.1,.36-.01,.48,0,.08,0,.09,.29,.21,.35,.11,.18,.3,.43,.31,.58v.16Z"/><path class="cls-2" d="M23.66,15.43s-.02,.46-.17,.29,.31,.67,.46,.79,1.8,1.7,2.06,2.14,1.2,2.83,1.41,2.97c0,0-.92-2.02-.95-2.18s-.32-.85-.39-.91-1.35-1.64-1.64-1.89-.78-1.21-.78-1.21Z"/></g></svg>