<?xml version="1.0" encoding="UTF-8"?><svg id="Complications" xmlns="http://www.w3.org/2000/svg" viewBox="0 0 32 32"><defs><style>.cls-1{fill:#fff;}.cls-2{fill:#fed4c2;}.cls-3{fill:#424242;}.cls-4{fill:#60412d;}</style></defs><g id="ic_mf"><path class="cls-2" d="M2.64,15.86c.71-.99,2.45-2.91,5.39-3.37,4.01-.63,6.47,3.26,6.47,3.26,0,0,.65,1.07-1.2,.77,0,0-4.21,1.48-9.9-.27,0,0-.28-.02-.77-.39Z"/><path class="cls-1" d="M3.66,15.4s.22-.14,.51-.35c.34-.25,2.07-.48,3.22-.5s2.07,.05,3.15,.13c1,.07,1.89,.08,1.93,.11,.43,.24,.8,.5,.82,.72,.03,.39-.05,.64-.05,.64,0,0-4.65,2.12-9.34-.38-.25-.13-.44-.24-.25-.37Z"/><path class="cls-4" d="M11.33,14.95c0,1.01-.82,1.83-1.83,1.83s-1.83-.82-1.83-1.83c0-.1,0-.21,.03-.31,0-.02,0-.04,.01-.06,.09-.03,.8,0,1.65,.04s1.76,.12,1.97,.14c0,.03,0,.06,0,.09s0,.06,0,.1Z"/><path d="M10.5,14.95c0,.55-.45,1-1,1s-1-.45-1-1c0-.13,.02-.25,.07-.36,.13,.01,1.16,.06,1.9,.11,.02,.08,.03,.16,.03,.25Z"/><path class="cls-3" d="M4.31,14.96s.31-.13,1.04-.24c.61-.09,1.62-.17,2.08-.18,1.01-.04,1.8,.04,3.11,.14s1.91,.09,1.91,.09c0,0-1.55-1.17-3.91-1s-4.09,1.11-4.23,1.19Z"/><path class="cls-2" d="M29.36,15.86c-.71-.99-2.45-2.91-5.39-3.37-4.01-.63-6.47,3.26-6.47,3.26,0,0-.65,1.07,1.2,.77,0,0,4.21,1.48,9.9-.27,0,0,.28-.02,.77-.39Z"/><path class="cls-1" d="M28.34,15.4s-.16-.34-.45-.55c-.16-.27-1.99-1.6-3.85-1.88s-2.65,.16-3.46,.67-1.85,1.48-1.88,1.87,.05,.64,.05,.64c0,0,4.65,2.12,9.34-.38,.25-.13,.44-.24,.25-.37Z"/><path class="cls-3" d="M27.62,14.6s-.95-.77-2.13-1.21c-1.16-.41-1.71-.5-2.69-.5-1.4,.06-2.32,.82-2.32,.82,0,0,.78-1.02,2.96-.92,2.36,.17,4.03,1.74,4.18,1.82Z"/><circle class="cls-4" cx="22.84" cy="14.99" r="1.91"/><circle cx="22.84" cy="15.02" r="1.02"/><circle class="cls-1" cx="9.74" cy="15.01" r=".28"/><circle class="cls-1" cx="22.64" cy="15.02" r=".28"/></g></svg>