<?xml version="1.0" encoding="UTF-8"?><svg id="Who_is_at_risk" xmlns="http://www.w3.org/2000/svg" viewBox="0 0 32 32"><defs><style>.cls-1{font-family:Arial-Black, 'Arial Black';font-size:6.58px;}.cls-1,.cls-2{fill:#fff;}.cls-3{fill:#f0a89e;}.cls-4{fill:#80b0cc;}.cls-5{fill:#8cd49c;}</style></defs><g id="ic_toddler"><g><path class="cls-4" d="M11.52,15.72c-.63,0-1.14-.51-1.14-1.14V7.51c0-.82,.67-1.5,1.5-1.5h7.06c.63,0,1.14,.51,1.14,1.14v7.42c0,.63-.51,1.14-1.14,1.14h-7.42Z"/><path class="cls-2" d="M18.93,6.52c.36,0,.64,.29,.64,.64v7.42c0,.36-.29,.64-.64,.64h-7.42c-.36,0-.64-.29-.64-.64V7.51c0-.55,.45-1,1-1h7.06m0-1h-7.06c-1.1,0-2,.9-2,2v7.06c0,.91,.74,1.64,1.64,1.64h7.42c.91,0,1.64-.74,1.64-1.64V7.16c0-.91-.74-1.64-1.64-1.64h0Z"/></g><g><rect class="cls-3" x="6.02" y="16.28" width="9.7" height="9.7" rx="1.5" ry="1.5"/><path class="cls-2" d="M14.23,16.78c.55,0,1,.45,1,1v6.71c0,.55-.45,1-1,1H7.52c-.55,0-1-.45-1-1v-6.71c0-.55,.45-1,1-1h6.71m0-1H7.52c-1.1,0-2,.9-2,2v6.71c0,1.1,.9,2,2,2h6.71c1.1,0,2-.9,2-2v-6.71c0-1.1-.9-2-2-2h0Z"/></g><g><rect class="cls-5" x="16.28" y="16.28" width="9.7" height="9.7" rx="1.5" ry="1.5"/><path class="cls-2" d="M24.47,16.78c.55,0,1,.45,1,1v6.7c0,.55-.45,1-1,1h-6.7c-.55,0-1-.45-1-1v-6.7c0-.55,.45-1,1-1h6.7m0-1h-6.7c-1.1,0-2,.9-2,2v6.7c0,1.1,.9,2,2,2h6.7c1.1,0,2-.9,2-2v-6.7c0-1.1-.9-2-2-2h0Z"/></g><text class="cls-1" transform="translate(12.72 12.99)"><tspan x="0" y="0">A</tspan></text><text class="cls-1" transform="translate(8.49 23.51)"><tspan x="0" y="0">B</tspan></text><text class="cls-1" transform="translate(18.66 23.51)"><tspan x="0" y="0">C</tspan></text></g></svg>