<?xml version="1.0" encoding="UTF-8"?><svg id="Who_is_at_risk" xmlns="http://www.w3.org/2000/svg" viewBox="0 0 32 32"><defs><style>.cls-1{fill:#e3a36f;}.cls-2{fill:#fff;}.cls-3{fill:#ffc08c;}.cls-4{fill:#80b0cc;}.cls-5{fill:#987099;}.cls-6{fill:#cb95cc;}.cls-7{fill:#608499;}</style></defs><g id="ic_young"><path class="cls-2" d="M7.8,5.07h5.79c.32,0,.58,.26,.58,.58v2.44c0,.27,.23,.49,.5,.49l4.15-.18c.33,0,.71,.27,.71,.6l.04,.95c0,.32,.26,.58,.58,.58l3.32-.02c.38,0,.7,.31,.7,.69v14.42c0,.38-.31,.69-.7,.69-2.64,.01-12.54-.16-15.29-.17-.41,0-.74-.33-.74-.74,0-3.26-.36-16.68-.36-19.61,0-.4,.33-.73,.73-.73Z"/><rect class="cls-6" x="8.07" y="6.09" width="5.24" height="19.53" rx=".49" ry=".49"/><path class="cls-5" d="M12.23,22.63h-3.08l-.51-.51V9.68l.51-.51h3.08l.51,.51v12.43l-.51,.51Z"/><rect class="cls-3" x="19.62" y="11.27" width="3.85" height="14.35" rx=".49" ry=".49"/><path class="cls-1" d="M20.19,11.6h1.58v13.73h-1.57c-.15,0-.26-.12-.26-.26V11.86c0-.14,.12-.26,.26-.26Z"/><rect class="cls-4" x="13.84" y="9.46" width="5.16" height="16.16" rx=".49" ry=".49" transform="translate(-.61 .59) rotate(-2.03)"/><path class="cls-7" d="M18.55,23.64l-4.06,.14c-.08,0-.14-.06-.14-.13v-.18c0-.08,.05-.14,.25-.15l4.06-.14s.02,.06,.02,.14v.18c0,.08-.05,.14-.13,.14Z"/><rect class="cls-7" x="14.37" y="18.74" width="4.34" height="4.34" rx=".14" ry=".14" transform="translate(-.73 .6) rotate(-2.03)"/><circle class="cls-7" cx="16.22" cy="11.45" r=".73"/></g></svg>